<svg width="73" height="64" viewBox="0 0 73 64" fill="none" xmlns="http://www.w3.org/2000/svg">
<path d="M37.355 0.0520172C37.2833 0.0844688 37.1791 0.162354 37.1205 0.227253C37.0619 0.298645 34.8345 3.82278 32.1708 8.07381C28.5172 13.8955 27.3254 15.8555 27.3059 16.0307C27.2472 16.5889 27.9181 16.9328 28.3414 16.5694C28.4 16.5175 30.4906 13.2075 32.998 9.20959C35.4988 5.21167 37.5699 1.94065 37.5894 1.94065C37.622 1.94065 40.989 7.28202 47.6776 17.9713C48.0488 18.5619 48.8564 19.8469 49.4686 20.8269C50.0808 21.8069 51.1098 23.4424 51.7415 24.4614C52.3797 25.4803 53.1157 26.6486 53.3762 27.0574C53.6367 27.4663 54.3726 28.6345 55.0109 29.6535C57.2773 33.275 58.4105 35.0857 58.899 35.8645C59.1725 36.2994 59.4004 36.6693 59.4004 36.6888C59.4004 36.7147 53.8191 36.7277 46.9937 36.7277H34.5871V35.0598V33.3918L34.802 33.593C35.336 34.1057 36.2413 34.5211 37.1596 34.6833C37.876 34.8066 38.2537 34.8066 38.4882 34.6833C38.8008 34.5276 38.8529 34.1252 38.6119 33.8396C38.4817 33.6968 38.397 33.6644 38.0062 33.6449C36.1175 33.5216 35.0104 32.6714 34.6782 31.0813C34.6261 30.8217 34.5936 30.5946 34.6131 30.5816C34.6261 30.5621 34.815 30.6919 35.0234 30.8606C35.7463 31.4448 36.9577 31.8601 37.9802 31.8601C38.3449 31.8601 38.4361 31.8342 38.5859 31.6979C38.9441 31.3734 38.7096 30.7633 38.2211 30.7503C36.6776 30.7179 35.4532 30.0753 34.9713 29.0499C34.7564 28.5826 34.5871 27.8882 34.5871 27.4209V27.1029L34.9713 27.4923C35.6291 28.1672 36.7493 28.8098 37.2573 28.8098C37.5959 28.8098 37.8369 28.4918 37.7783 28.0959C37.7522 27.9141 37.5178 27.7324 37.1661 27.6221C36.352 27.3625 35.5509 26.6356 35.1081 25.7399C34.815 25.1493 34.6782 24.5847 34.6131 23.715C34.574 23.2347 34.5415 23.1114 34.4177 22.9881C34.2028 22.774 33.7534 22.7804 33.545 23.0011C33.4148 23.1374 33.3887 23.2607 33.3431 23.8254C33.2845 24.6756 33.1999 25.0195 32.8872 25.6685C32.5681 26.3435 32.0601 26.8627 31.4284 27.1678C31.1809 27.2846 30.9074 27.3819 30.8227 27.3819C30.5948 27.3819 30.2887 27.7194 30.2887 27.9661C30.2887 28.2192 30.5948 28.5502 30.8292 28.5502C31.2851 28.5502 32.3597 28.0115 32.9068 27.5117C33.1412 27.3041 33.3496 27.1418 33.3692 27.1613C33.4213 27.2197 33.3496 27.9531 33.252 28.3555C32.9068 29.7443 31.9038 30.5232 30.2236 30.6919C29.4355 30.7763 29.3964 30.7893 29.2727 31.0229C29.1424 31.276 29.2076 31.5551 29.4225 31.7303C29.9435 32.1392 32.1708 31.5616 33.0761 30.7893L33.3496 30.5491V30.7373C33.3496 31.3539 32.9068 32.3015 32.4183 32.7428C31.8582 33.2425 30.8878 33.6125 30.1063 33.6125C29.9175 33.6125 29.6635 33.6514 29.5462 33.7033C29.1229 33.8786 29.0969 34.4821 29.5072 34.7028C29.7221 34.8196 30.5427 34.7612 31.233 34.5925C31.8452 34.4367 32.7114 34.0213 33.0826 33.6968C33.3887 33.4437 33.4278 33.4762 33.3887 33.937C33.3757 34.0992 33.3627 34.7937 33.3562 35.4751L33.3496 36.7277H28.3349H23.3201V34.547V32.3664L23.6262 32.6389C23.9844 32.9505 24.8245 33.3723 25.3716 33.5151C25.9317 33.6644 26.9346 33.7163 27.1235 33.6125C27.4557 33.4372 27.5078 33.0413 27.2342 32.7623C27.0649 32.6 26.9933 32.574 26.6611 32.574C25.7884 32.5676 24.831 32.2236 24.2514 31.7044C23.8737 31.3604 23.5545 30.8087 23.4243 30.2506C23.3331 29.8482 23.3592 29.7573 23.522 29.952C23.6522 30.1078 24.1212 30.4193 24.5575 30.6335C25.4042 31.0489 26.9411 31.2371 27.2277 30.9515C27.5012 30.6789 27.4426 30.2506 27.117 30.0883C27.0193 30.0364 26.6872 29.978 26.3811 29.9585C25.1502 29.8741 24.1537 29.2835 23.6848 28.3684C23.5155 28.031 23.3201 27.3495 23.3201 27.0704C23.3201 26.9276 23.3396 26.9341 23.6327 27.1872C24.3165 27.7973 25.5344 28.2257 26.5634 28.2257C27.0063 28.2257 27.117 28.2062 27.2277 28.0959C27.4036 27.9206 27.4491 27.6805 27.3449 27.4728C27.2277 27.2262 27.0063 27.1223 26.5699 27.1223C26.0815 27.1223 25.2869 26.9147 24.8115 26.6615C24.3556 26.4214 23.9193 25.9671 23.6848 25.5128C23.5155 25.1753 23.3201 24.4938 23.3201 24.2148C23.3201 24.072 23.3396 24.0785 23.6262 24.3316C24.0235 24.6756 24.8441 25.0779 25.4953 25.2402C25.9903 25.3635 26.9021 25.4154 27.13 25.3311C27.2928 25.2662 27.4361 24.9287 27.3905 24.721C27.3189 24.3965 27.1561 24.3186 26.4722 24.2602C24.792 24.1174 23.7499 23.3191 23.4178 21.9173C23.3657 21.6901 23.3201 21.437 23.3201 21.3591C23.3201 21.2163 23.3396 21.2228 23.6132 21.4629C24.2905 22.0535 25.326 22.443 26.3876 22.4949C27.0323 22.5273 27.0909 22.5208 27.2147 22.3975C27.4036 22.2093 27.4491 21.9757 27.3449 21.7615C27.2277 21.5149 27.0063 21.411 26.5699 21.411C26.114 21.411 25.326 21.2163 24.8831 20.9892C23.8932 20.4894 23.3266 19.451 23.3201 18.14V17.6922L23.8281 18.1789C24.6682 18.9967 25.9187 19.7041 26.6416 19.769C26.9672 19.8015 27.1951 19.6587 27.2668 19.3666C27.3515 19.0421 27.1756 18.8734 26.4657 18.5813C25.606 18.2374 25.059 17.8804 24.4989 17.2898C23.789 16.5434 23.3201 15.4077 23.3201 14.4341C23.3201 14.1031 23.1898 13.7916 23.027 13.7267C22.773 13.6294 22.4344 13.6878 22.2781 13.85C22.1543 13.9863 22.1218 14.1096 22.0827 14.6094C22.0306 15.2908 21.9459 15.6218 21.718 16.141C21.223 17.2573 20.181 18.1465 18.7807 18.6527C18.5333 18.7436 18.2988 18.8669 18.2597 18.9253C18.1164 19.1135 18.1555 19.4899 18.3379 19.6587C18.4746 19.7885 18.5398 19.8015 18.8263 19.769C19.2171 19.7236 20.194 19.2758 20.7867 18.8734C21.0146 18.7241 21.3988 18.3996 21.6463 18.153C21.8873 17.9128 22.1022 17.7117 22.1283 17.7117C22.1934 17.7117 22.0827 18.7825 21.9785 19.1849C21.7766 19.9702 21.3012 20.5673 20.5978 20.9437C20.1158 21.1968 19.3213 21.411 18.8459 21.411C18.4681 21.411 18.149 21.5343 18.0839 21.7031C17.9927 21.9432 18.0448 22.2353 18.2076 22.3845C18.3574 22.5208 18.403 22.5273 19.0022 22.4949C20.0572 22.4365 20.8388 22.1769 21.6007 21.6317L22.0827 21.2877V21.5019C22.0827 22.112 21.5877 23.0855 21.0732 23.4879C20.4936 23.9487 19.5688 24.2667 18.8263 24.2667C18.4681 24.2667 18.149 24.39 18.0839 24.5587C17.9992 24.7924 18.0448 25.0909 18.1946 25.2272C18.3248 25.344 18.4225 25.37 18.8198 25.37C19.8097 25.37 20.8127 25.052 21.6007 24.4873L22.0827 24.1434V24.3575C22.0827 24.9871 21.5486 26.019 21.0276 26.389C20.3894 26.8368 19.5492 27.1223 18.8263 27.1223C18.4681 27.1223 18.149 27.2456 18.0839 27.4144C17.9992 27.648 18.0448 27.9466 18.1946 28.0829C18.3248 28.2062 18.4225 28.2257 18.8654 28.2257C19.8228 28.2257 20.8974 27.8687 21.6789 27.2911L22.0827 26.9925V27.2132C22.0827 27.5766 21.8352 28.2516 21.5551 28.6735C21.0472 29.4328 19.9205 29.9715 18.8394 29.978C18.4681 29.978 18.149 30.1013 18.0839 30.27C17.9992 30.5037 18.0448 30.8022 18.1946 30.9385C18.3248 31.0618 18.4225 31.0813 18.8654 31.0813C19.8423 31.0813 21.0211 30.6854 21.757 30.1013L22.0892 29.8417L22.0436 30.0883C21.8157 31.3279 20.9169 32.1911 19.5688 32.4767C19.3213 32.5286 18.9566 32.574 18.7547 32.574C18.4551 32.574 18.3574 32.6065 18.2141 32.7363C17.9732 32.9634 17.9732 33.3529 18.2272 33.5476C18.39 33.6839 18.4551 33.6903 19.0217 33.6579C19.3604 33.6384 19.8163 33.5735 20.0312 33.5151C20.5652 33.3788 21.3272 33.0089 21.731 32.6974C21.9133 32.5611 22.0762 32.4442 22.0892 32.4442C22.1152 32.4442 22.0827 36.6823 22.0566 36.7147C22.0436 36.7212 20.6303 36.7212 18.9045 36.7147L15.7719 36.6953L16.6446 35.2999C17.3545 34.1771 17.5238 33.8591 17.5238 33.6709C17.5238 33.1841 17.0158 32.8856 16.586 33.1192C16.3059 33.2685 13.9874 36.9679 13.9548 37.3183C13.9223 37.6169 14.02 37.7986 14.2674 37.9284C14.4368 38.0128 17.0418 38.0257 37.6741 38.0128L60.8984 37.9933L61.0742 37.8181C61.4194 37.4741 61.3673 37.3248 60.3187 35.6569C59.3939 34.1836 58.0914 32.1068 56.1506 29.0045C55.6035 28.1283 54.8676 26.9601 54.5159 26.4084C54.1642 25.8568 53.3567 24.5717 52.7249 23.5528C39.8493 2.99205 38.0388 0.136391 37.8304 0.0649986C37.5959 -0.0193748 37.5373 -0.0193748 37.355 0.0520172Z" fill="#18333E"/>
<path d="M40.1504 11.3134C40.0299 11.4292 38.489 13.2053 37.0242 14.9364C36.6184 15.4126 36.2697 15.8631 36.2443 15.9274C36.1555 16.1848 36.3204 16.4487 36.7769 16.764C37.0242 16.9378 37.2208 17.0922 37.2208 17.1179C37.2208 17.1437 36.5677 17.8323 35.7687 18.6431C34.9761 19.4539 34.2849 20.1876 34.2405 20.2712C34.0883 20.5672 34.2849 21.0177 34.5893 21.0499C34.9761 21.0949 35.0141 21.0627 36.796 19.2609C37.7662 18.2827 38.6032 17.3947 38.6539 17.2981C38.8505 16.9249 38.6729 16.6804 37.7915 16.0883L37.6393 15.9853L37.9818 15.5671C38.172 15.3354 38.6285 14.8013 38.9963 14.383C41.0191 12.0599 41.0255 12.047 41.0255 11.7381C41.0255 11.3327 40.4484 11.056 40.1504 11.3134Z" fill="#18333E"/>
<path d="M14.7607 40.7939C13.9887 40.9195 13.1535 41.3402 12.603 41.8802C11.9006 42.571 11.5589 43.3246 11.4956 44.3419C11.3754 46.2634 12.565 47.8396 14.4823 48.3169C15.0075 48.4424 16.1781 48.4424 16.716 48.3106C18.1777 47.9589 19.2977 46.8349 19.6014 45.4282C20.0443 43.3371 18.8357 41.403 16.7476 40.8755C16.2857 40.7562 15.2416 40.7122 14.7607 40.7939ZM16.4186 42.3575C17.6714 42.7971 18.2789 44.3607 17.7031 45.6417C16.9058 47.4 14.2735 47.3938 13.4572 45.6355C13.2927 45.2838 13.2737 45.177 13.28 44.6119C13.28 43.7955 13.4319 43.3999 13.9065 42.9101C14.4253 42.3889 15.0328 42.1691 15.8048 42.2382C16.0136 42.257 16.292 42.3073 16.4186 42.3575Z" fill="#18333E"/>
<path d="M38.5243 40.7843L37.6892 40.8099V43.0888V45.374L36.9169 44.4175C36.4962 43.8976 35.6737 42.8705 35.0835 42.1323L34.0224 40.8035H33.2815H32.5469L32.5783 44.5395C32.5971 46.6001 32.6097 48.3076 32.6097 48.3461C32.6034 48.3846 32.9173 48.4103 33.4196 48.4103C33.8717 48.4103 34.2359 48.3974 34.2359 48.3782C34.2359 48.3589 34.2359 47.3768 34.2421 46.1957C34.2421 45.0081 34.2673 44.0067 34.2924 43.9618C34.3175 43.9168 35.027 44.7449 36.1572 46.1507L37.9843 48.4103H38.6813H39.3845V44.5716C39.3845 42.4661 39.3782 40.7458 39.3719 40.7522C39.3594 40.7586 38.9764 40.7779 38.5243 40.7843Z" fill="#18333E"/>
<path d="M41.8463 41.4947V42.2373L43.0455 42.2179L44.2447 42.1985V45.3044C44.2447 48.0164 44.2573 48.4038 44.3394 48.4038C44.3899 48.4103 44.7812 48.4103 45.2104 48.4103H45.9804L45.9993 45.3109L46.012 42.205H47.2112H48.4104V41.4947V40.7844L45.1283 40.7715L41.8463 40.7522V41.4947Z" fill="#18333E"/>
<path d="M0.038995 42.5423C0.0649916 43.5311 0.0844891 45.2566 0.0844891 46.3746V48.4103H0.896884H1.70928L1.72228 46.2776C1.72228 45.1015 1.72878 44.1062 1.72228 44.0545C1.71578 43.8994 1.85226 44.0933 2.64516 45.4052C3.0676 46.0967 3.54204 46.8787 3.70452 47.1307L3.99048 47.6025H4.39993H4.80938L5.91423 45.7606L7.01909 43.9123L7.05809 45.1855C7.08408 45.8899 7.10358 46.8916 7.10358 47.415V48.3715L7.91598 48.3909C8.36442 48.4038 8.73487 48.3909 8.74787 48.365C8.75437 48.3327 8.75437 46.6137 8.74137 44.5327L8.72837 40.7522H7.98747H7.24656L6.34968 42.2515C4.32194 45.6637 4.43243 45.4892 4.34794 45.36C4.30244 45.2953 3.65903 44.2355 2.91812 42.9947L1.5663 40.7522H0.786398H0L0.038995 42.5423Z" fill="#18333E"/>
<path d="M22.4273 43.2399C22.4273 45.1337 22.4529 45.8397 22.5168 46.1763C22.7213 47.1661 23.2645 47.9183 24.0505 48.3011C24.6575 48.598 25.0474 48.6838 25.827 48.6838C27.3415 48.6838 28.332 48.1493 28.8815 47.0209C29.233 46.3017 29.2649 45.9981 29.2649 43.2399V40.7522H28.4086H27.546L27.5268 43.3058C27.5076 45.8199 27.5076 45.8727 27.3606 46.1961C27.0411 46.9087 26.5427 47.1925 25.7247 47.1397C24.9707 47.0869 24.5681 46.7834 24.3061 46.0641C24.1911 45.7606 24.1847 45.5428 24.2038 43.2399L24.223 40.7522H23.322H22.4273V43.2399Z" fill="#18333E"/>
<path d="M52.6361 41.289C52.5064 41.5801 52.2924 42.0522 52.1692 42.3368C52.0396 42.6214 51.3912 44.0897 50.7169 45.6032C50.0426 47.1167 49.4979 48.3585 49.5044 48.3715C49.5109 48.3779 49.9194 48.3909 50.4121 48.3973L51.3069 48.4103L51.6376 47.5888L51.9682 46.7674H53.7512H55.5343L55.8649 47.5824L56.1956 48.3909H56.9801C57.4145 48.3909 57.8425 48.3909 57.9268 48.3844C58.0694 48.3844 58.011 48.2421 56.9023 45.7455C56.254 44.2966 55.4889 42.5826 55.2101 41.9358L54.6914 40.7586L53.7837 40.7522H52.8759L52.6361 41.289ZM54.5163 44.3225L54.9702 45.4091H53.7772C53.1223 45.4091 52.5842 45.3962 52.5842 45.3833C52.5842 45.3574 53.3557 43.4881 53.654 42.7896L53.7642 42.5373L53.9133 42.8866C53.9911 43.0806 54.2635 43.7274 54.5163 44.3225Z" fill="#18333E"/>
<path d="M60.2002 44.578L60.2355 48.4103L60.9472 48.4038C61.3413 48.3973 61.7 48.3909 61.7412 48.3909C61.7942 48.3909 61.8118 47.5817 61.8118 44.5715V40.7522H60.9883H60.1708L60.2002 44.578Z" fill="#18333E"/>
<path d="M65.0941 44.5651V48.378L65.8118 48.3844C66.2097 48.3909 66.6077 48.3909 66.699 48.3974L66.8621 48.4038V46.1678C66.8556 44.9334 66.8817 43.9123 66.9078 43.8994C66.9339 43.88 67.8081 44.8882 68.8454 46.1355L70.7373 48.3974L71.468 48.4038L72.2052 48.4103V44.578V40.7522H71.3245H70.4438L70.4307 43.0399L70.4111 45.3276L69.6283 44.3906C69.1977 43.8736 68.6823 43.2532 68.4866 43.0141C68.2909 42.7749 67.8211 42.2127 67.4427 41.7539C67.0644 41.3015 66.7316 40.8879 66.7055 40.8426C66.6664 40.7715 66.4707 40.7522 65.877 40.7522H65.0941V44.5651Z" fill="#18333E"/>
<path d="M35.6461 53.1001C34.9109 53.252 34.2972 53.7342 34.0679 54.3419C33.6699 55.3723 34.0679 56.449 35.0189 56.9642C35.3628 57.1492 35.4303 57.1624 36.125 57.1624C36.8197 57.1624 36.8939 57.1492 37.2715 56.9642L37.6762 56.7595L37.6965 55.9536L37.7167 55.1477H37.4064H37.1029V55.8149V56.4754L36.8871 56.5679C36.0305 56.9114 35.0526 56.6009 34.6681 55.8611C34.3309 55.2138 34.4658 54.4872 35.0121 54.005C35.6191 53.47 36.4622 53.4105 37.1367 53.8663L37.3862 54.0314L37.5616 53.8531L37.7437 53.6814L37.5144 53.4898C37.1029 53.1529 36.2396 52.9746 35.6461 53.1001Z" fill="#18333E"/>
<path d="M43.052 53.0959C42.3876 53.2266 41.7716 53.6514 41.481 54.1742C41.2803 54.5401 41.2388 55.3831 41.391 55.8275C41.7094 56.7293 42.7959 57.2978 43.8963 57.1345C44.3046 57.0756 44.8721 56.8338 45.0312 56.6574C45.1143 56.5659 45.1004 56.5267 44.9482 56.3829L44.7752 56.2196L44.4984 56.3895C43.4464 57.0495 42.0415 56.4614 41.8755 55.2982C41.7716 54.5924 42.2699 53.8474 42.9758 53.6514C43.571 53.488 44.0347 53.5468 44.5122 53.8539L44.7752 54.0173L44.9551 53.8539L45.1281 53.6906L44.969 53.5272C44.6298 53.1809 43.6886 52.9717 43.052 53.0959Z" fill="#18333E"/>
<path d="M13.9488 55.1144V57.1624L14.215 57.1426L14.4751 57.1227L14.4937 56.2111L14.5123 55.306H15.5898H16.6735V56.2309V57.1558H16.9521H17.2308V55.1078V53.0598H16.9521H16.6735V53.9451V54.8237L15.5898 54.8369L14.5061 54.8501V53.9583V53.0598H14.2274H13.9488V55.1144Z" fill="#18333E"/>
<path d="M19.1636 55.088L19.1909 57.1227L19.583 57.1426L19.9659 57.1624V55.1144V53.0598H19.5556H19.1454L19.1636 55.088Z" fill="#18333E"/>
<path d="M21.6201 55.0946L21.64 57.1229L21.9251 57.1426L22.2035 57.1624V56.6158V56.0627L22.5549 55.7202C22.7472 55.5293 22.9195 55.3778 22.9461 55.3778C22.966 55.3778 23.3372 55.7795 23.7615 56.2668L24.5372 57.1558H24.8687C25.0477 57.1558 25.1803 57.1295 25.1604 57.1031C25.1472 57.0768 24.7295 56.5631 24.2322 55.9705L23.3372 54.8971L24.1991 54.0015L25.0676 53.1059L24.7427 53.0862L24.4245 53.0598L23.3173 54.2056L22.2102 55.3449L22.2035 54.2056V53.073H21.9052H21.6068L21.6201 55.0946Z" fill="#18333E"/>
<path d="M26.5419 55.088L26.5602 57.1227L26.8215 57.1426L27.0768 57.1624V55.1144V53.0598H26.8033H26.5298L26.5419 55.088Z" fill="#18333E"/>
<path d="M29.0047 55.088L29.0248 57.1227L29.3133 57.1426L29.595 57.1624V55.6363V54.1036L29.9506 54.533C30.1384 54.7643 30.702 55.4513 31.1984 56.0591C32.037 57.0831 32.1175 57.1558 32.3254 57.1558H32.5468V55.1078V53.0598H32.2785H32.0101V54.5463C32.0101 55.3654 31.99 56.0327 31.9632 56.0327C31.9296 56.0327 31.3661 55.3654 30.702 54.5463C29.5145 53.0862 29.4877 53.0598 29.2395 53.0598H28.9913L29.0047 55.088Z" fill="#18333E"/>
<path d="M46.4956 55.1111V57.1624H47.8632H49.2307V56.8977V56.633H48.1562H47.0817V54.8464V53.0598H46.7887H46.4956V55.1111Z" fill="#18333E"/>
<path d="M50.5981 54.4668C50.5981 56.0455 50.6484 56.3164 50.9942 56.6929C51.2772 57.0033 51.6481 57.1553 52.1197 57.1619C52.9182 57.1751 53.3583 56.9373 53.6475 56.3296L53.8362 55.9332L53.855 54.4932L53.8802 53.0598H53.5909H53.3017V54.4272C53.3017 55.6162 53.2829 55.8341 53.1823 56.0653C53.0251 56.4286 52.8742 56.5542 52.4781 56.64C51.8116 56.7787 51.296 56.4617 51.1703 55.8341C51.1325 55.6492 51.1011 54.949 51.1011 54.2818V53.0598H50.8496H50.5981V54.4668Z" fill="#18333E"/>
<path d="M55.7947 55.1111V57.1624H56.7757C58.1947 57.1624 58.6944 57.0305 58.9474 56.5886C59.1078 56.3181 59.1201 55.8234 58.9782 55.5332C58.8857 55.3288 58.5834 55.0517 58.46 55.0517C58.423 55.0517 58.4908 54.9528 58.6019 54.8341C58.9412 54.4713 58.9659 53.8711 58.6636 53.5149C58.3366 53.139 58.207 53.106 56.9546 53.0862L55.7947 53.0598V55.1111ZM57.9541 53.6402C58.2379 53.7656 58.3243 53.8975 58.3243 54.2075C58.3181 54.689 57.9911 54.8539 57.0286 54.8539H56.35V54.1943V53.5347H57.0286C57.5099 53.5347 57.7752 53.5677 57.9541 53.6402ZM58.1762 55.4145C58.46 55.5398 58.5896 55.8564 58.5032 56.1994C58.4045 56.5688 58.2009 56.6479 57.2014 56.6875L56.35 56.7205V56.0147V55.3156H57.152C57.7196 55.3156 58.0219 55.342 58.1762 55.4145Z" fill="#18333E"/>
<path d="M29.508 63.1998C29.2288 63.266 29.1704 63.8676 29.4366 63.9639C29.4951 63.982 33.4888 64 38.3204 64H47.0937L47.2106 63.8737C47.3535 63.7052 47.3535 63.5066 47.1976 63.3322L47.0742 63.1878L38.3463 63.1817C33.5538 63.1757 29.573 63.1817 29.508 63.1998Z" fill="#18333E"/>
</svg>
